# xmcd
#
# Track frame offsets:
#	182
#	13215
#	33962
#	50175
#	64255
#	82682
#	103047
#	120090
#	136000
#	157107
#	197930
#	212232
#	229090
#	239410
#	251022
#	264945
#	278477
#	297072
#
# Disc length: 4187 seconds
#
# Revision: 4
# Processed by: cddbd v1.5.2PL0 Copyright (c) Steve Scherf et al.
# Submitted via: audiograbber 1.83.01
#
DISCID=fa105912
DTITLE=Various Artist - Solid Metal 01
DYEAR=1900
DGENRE=Rock
TTITLE0=Motörhead - Ace of spades (live)
TTITLE1=Motörhead - Eat the Rich
TTITLE2=Cheap trick - If you want my love
TTITLE3=Cheap trick - I want you to want me
TTITLE4=Europe - Rock the Night
TTITLE5=Europe - Carrie
TTITLE6=Raven - Break the chain
TTITLE7=Raven - All for one
TTITLE8=Lynyrd skynyrd - Sweet home Alabama
TTITLE9=Lynyrd skynyrd - Freebird
TTITLE10=Venom - Welcome to hell
TTITLE11=Venom - Countess Bathory
TTITLE12=Dogs d' amour - Satellite Kid
TTITLE13=Dogs d' amour - The kid from Kensington
TTITLE14=Tygers of Pan Tang - Bad Times
TTITLE15=Tygers of Pan Tang - Don't Take Nothing
TTITLE16=Alice Cooper - Freedom
TTITLE17=Asia - Heat of the moment
EXTD=
EXTT0=
EXTT1=Motvrhead
EXTT2=Cheap Trick
EXTT3=Cheap Trick
EXTT4=Europe
EXTT5=Europe
EXTT6=Raven
EXTT7=Raven
EXTT8=Lynyrd Skynyrd
EXTT9=Lynyrd Skynyrd
EXTT10=Venom
EXTT11=Venom
EXTT12=Dogs D'amour
EXTT13=Dogs D'amour
EXTT14=Tygers Of Pantang
EXTT15=Tygers Of Pantang
EXTT16=Alice Cooper
EXTT17=Asia
PLAYORDER=
